<mxfile host="app.diagrams.net" modified="2024-03-12T13:01:17.290Z" agent="Mozilla/5.0 (Windows NT 10.0; Win64; x64) AppleWebKit/537.36 (KHTML, like Gecko) Chrome/122.0.0.0 Safari/537.36 Edg/122.0.0.0" etag="G59FYvxX_NPOFpAA3L9N" version="24.0.4" type="onedrive">
  <diagram name="Página-1" id="kg6duSwCMxmRgu78lRVk">
    <mxGraphModel grid="1" page="1" gridSize="10" guides="1" tooltips="1" connect="1" arrows="1" fold="1" pageScale="1" pageWidth="827" pageHeight="1169" math="0" shadow="0">
      <root>
        <mxCell id="0" />
        <mxCell id="1" parent="0" />
        <mxCell id="TeS_7XPuzBVDhZ3e-1pV-3" style="edgeStyle=orthogonalEdgeStyle;rounded=0;orthogonalLoop=1;jettySize=auto;html=1;" edge="1" parent="1" source="TeS_7XPuzBVDhZ3e-1pV-1" target="TeS_7XPuzBVDhZ3e-1pV-2">
          <mxGeometry relative="1" as="geometry" />
        </mxCell>
        <mxCell id="TeS_7XPuzBVDhZ3e-1pV-1" value="INÍCIO" style="ellipse;whiteSpace=wrap;html=1;" vertex="1" parent="1">
          <mxGeometry x="354" y="40" width="120" height="80" as="geometry" />
        </mxCell>
        <mxCell id="TeS_7XPuzBVDhZ3e-1pV-5" style="edgeStyle=orthogonalEdgeStyle;rounded=0;orthogonalLoop=1;jettySize=auto;html=1;entryX=0.5;entryY=0;entryDx=0;entryDy=0;" edge="1" parent="1" source="TeS_7XPuzBVDhZ3e-1pV-2" target="TeS_7XPuzBVDhZ3e-1pV-4">
          <mxGeometry relative="1" as="geometry" />
        </mxCell>
        <mxCell id="TeS_7XPuzBVDhZ3e-1pV-2" value="ano" style="shape=manualInput;whiteSpace=wrap;html=1;" vertex="1" parent="1">
          <mxGeometry x="374" y="160" width="80" height="60" as="geometry" />
        </mxCell>
        <mxCell id="TeS_7XPuzBVDhZ3e-1pV-7" style="edgeStyle=orthogonalEdgeStyle;rounded=0;orthogonalLoop=1;jettySize=auto;html=1;entryX=0.5;entryY=0;entryDx=0;entryDy=0;" edge="1" parent="1" source="TeS_7XPuzBVDhZ3e-1pV-4" target="TeS_7XPuzBVDhZ3e-1pV-6">
          <mxGeometry relative="1" as="geometry" />
        </mxCell>
        <mxCell id="TeS_7XPuzBVDhZ3e-1pV-8" value="T" style="edgeLabel;html=1;align=center;verticalAlign=middle;resizable=0;points=[];" connectable="0" vertex="1" parent="TeS_7XPuzBVDhZ3e-1pV-7">
          <mxGeometry x="-0.6118" y="-1" relative="1" as="geometry">
            <mxPoint x="-7" y="-1" as="offset" />
          </mxGeometry>
        </mxCell>
        <mxCell id="TeS_7XPuzBVDhZ3e-1pV-4" value="ano divisível por 4?" style="rhombus;whiteSpace=wrap;html=1;" vertex="1" parent="1">
          <mxGeometry x="346" y="250" width="136" height="80" as="geometry" />
        </mxCell>
        <mxCell id="TeS_7XPuzBVDhZ3e-1pV-13" style="edgeStyle=orthogonalEdgeStyle;rounded=0;orthogonalLoop=1;jettySize=auto;html=1;entryX=0.5;entryY=0;entryDx=0;entryDy=0;exitX=1;exitY=0.5;exitDx=0;exitDy=0;" edge="1" parent="1" source="TeS_7XPuzBVDhZ3e-1pV-6" target="TeS_7XPuzBVDhZ3e-1pV-12">
          <mxGeometry relative="1" as="geometry" />
        </mxCell>
        <mxCell id="TeS_7XPuzBVDhZ3e-1pV-14" value="T" style="edgeLabel;html=1;align=center;verticalAlign=middle;resizable=0;points=[];" connectable="0" vertex="1" parent="TeS_7XPuzBVDhZ3e-1pV-13">
          <mxGeometry x="-0.557" y="2" relative="1" as="geometry">
            <mxPoint x="-5" y="2" as="offset" />
          </mxGeometry>
        </mxCell>
        <mxCell id="TeS_7XPuzBVDhZ3e-1pV-6" value="ano divisível por 100?" style="rhombus;whiteSpace=wrap;html=1;" vertex="1" parent="1">
          <mxGeometry x="490" y="350" width="150" height="80" as="geometry" />
        </mxCell>
        <mxCell id="TeS_7XPuzBVDhZ3e-1pV-19" style="edgeStyle=orthogonalEdgeStyle;rounded=0;orthogonalLoop=1;jettySize=auto;html=1;entryX=0.5;entryY=0;entryDx=0;entryDy=0;exitX=0;exitY=0;exitDx=40;exitDy=40;exitPerimeter=0;" edge="1" parent="1" source="TeS_7XPuzBVDhZ3e-1pV-9" target="TeS_7XPuzBVDhZ3e-1pV-18">
          <mxGeometry relative="1" as="geometry">
            <Array as="points">
              <mxPoint x="210" y="530" />
              <mxPoint x="315" y="530" />
            </Array>
          </mxGeometry>
        </mxCell>
        <mxCell id="TeS_7XPuzBVDhZ3e-1pV-9" value="&lt;b&gt;ano&lt;/b&gt;&amp;nbsp;não é bissexto!" style="shape=display;whiteSpace=wrap;html=1;" vertex="1" parent="1">
          <mxGeometry x="170" y="440" width="80" height="40" as="geometry" />
        </mxCell>
        <mxCell id="TeS_7XPuzBVDhZ3e-1pV-10" style="edgeStyle=orthogonalEdgeStyle;rounded=0;orthogonalLoop=1;jettySize=auto;html=1;entryX=0;entryY=0;entryDx=40;entryDy=0;entryPerimeter=0;" edge="1" parent="1" source="TeS_7XPuzBVDhZ3e-1pV-4" target="TeS_7XPuzBVDhZ3e-1pV-9">
          <mxGeometry relative="1" as="geometry" />
        </mxCell>
        <mxCell id="TeS_7XPuzBVDhZ3e-1pV-11" value="F" style="edgeLabel;html=1;align=center;verticalAlign=middle;resizable=0;points=[];" connectable="0" vertex="1" parent="TeS_7XPuzBVDhZ3e-1pV-10">
          <mxGeometry x="-0.8741" y="2" relative="1" as="geometry">
            <mxPoint as="offset" />
          </mxGeometry>
        </mxCell>
        <mxCell id="TeS_7XPuzBVDhZ3e-1pV-12" value="ano divisível por 400?" style="rhombus;whiteSpace=wrap;html=1;" vertex="1" parent="1">
          <mxGeometry x="610" y="430" width="150" height="80" as="geometry" />
        </mxCell>
        <mxCell id="TeS_7XPuzBVDhZ3e-1pV-20" style="edgeStyle=orthogonalEdgeStyle;rounded=0;orthogonalLoop=1;jettySize=auto;html=1;entryX=0.5;entryY=0;entryDx=0;entryDy=0;exitX=0;exitY=0;exitDx=40;exitDy=40;exitPerimeter=0;" edge="1" parent="1" source="TeS_7XPuzBVDhZ3e-1pV-15" target="TeS_7XPuzBVDhZ3e-1pV-18">
          <mxGeometry relative="1" as="geometry">
            <Array as="points">
              <mxPoint x="414" y="530" />
              <mxPoint x="315" y="530" />
            </Array>
          </mxGeometry>
        </mxCell>
        <mxCell id="TeS_7XPuzBVDhZ3e-1pV-15" value="&lt;b&gt;ano&lt;/b&gt;&amp;nbsp;é bissexto!" style="shape=display;whiteSpace=wrap;html=1;" vertex="1" parent="1">
          <mxGeometry x="374" y="450" width="80" height="40" as="geometry" />
        </mxCell>
        <mxCell id="TeS_7XPuzBVDhZ3e-1pV-16" style="edgeStyle=orthogonalEdgeStyle;rounded=0;orthogonalLoop=1;jettySize=auto;html=1;entryX=0;entryY=0;entryDx=40;entryDy=0;entryPerimeter=0;" edge="1" parent="1" source="TeS_7XPuzBVDhZ3e-1pV-6" target="TeS_7XPuzBVDhZ3e-1pV-15">
          <mxGeometry relative="1" as="geometry" />
        </mxCell>
        <mxCell id="TeS_7XPuzBVDhZ3e-1pV-17" value="F" style="edgeLabel;html=1;align=center;verticalAlign=middle;resizable=0;points=[];" connectable="0" vertex="1" parent="TeS_7XPuzBVDhZ3e-1pV-16">
          <mxGeometry x="-0.816" y="-2" relative="1" as="geometry">
            <mxPoint as="offset" />
          </mxGeometry>
        </mxCell>
        <mxCell id="TeS_7XPuzBVDhZ3e-1pV-18" value="FIM" style="ellipse;whiteSpace=wrap;html=1;" vertex="1" parent="1">
          <mxGeometry x="270" y="554" width="90" height="60" as="geometry" />
        </mxCell>
        <mxCell id="TeS_7XPuzBVDhZ3e-1pV-21" style="edgeStyle=orthogonalEdgeStyle;rounded=0;orthogonalLoop=1;jettySize=auto;html=1;entryX=1;entryY=0.5;entryDx=0;entryDy=0;entryPerimeter=0;" edge="1" parent="1" source="TeS_7XPuzBVDhZ3e-1pV-12" target="TeS_7XPuzBVDhZ3e-1pV-15">
          <mxGeometry relative="1" as="geometry" />
        </mxCell>
        <mxCell id="TeS_7XPuzBVDhZ3e-1pV-22" value="T" style="edgeLabel;html=1;align=center;verticalAlign=middle;resizable=0;points=[];" connectable="0" vertex="1" parent="TeS_7XPuzBVDhZ3e-1pV-21">
          <mxGeometry x="-0.846" relative="1" as="geometry">
            <mxPoint as="offset" />
          </mxGeometry>
        </mxCell>
        <mxCell id="TeS_7XPuzBVDhZ3e-1pV-23" style="edgeStyle=orthogonalEdgeStyle;rounded=0;orthogonalLoop=1;jettySize=auto;html=1;entryX=0;entryY=0.5;entryDx=0;entryDy=0;entryPerimeter=0;" edge="1" parent="1" source="TeS_7XPuzBVDhZ3e-1pV-12" target="TeS_7XPuzBVDhZ3e-1pV-9">
          <mxGeometry relative="1" as="geometry">
            <Array as="points">
              <mxPoint x="685" y="670" />
              <mxPoint x="150" y="670" />
              <mxPoint x="150" y="460" />
            </Array>
          </mxGeometry>
        </mxCell>
        <mxCell id="TeS_7XPuzBVDhZ3e-1pV-24" value="F" style="edgeLabel;html=1;align=center;verticalAlign=middle;resizable=0;points=[];" connectable="0" vertex="1" parent="TeS_7XPuzBVDhZ3e-1pV-23">
          <mxGeometry x="-0.9447" y="1" relative="1" as="geometry">
            <mxPoint x="-1" y="-16" as="offset" />
          </mxGeometry>
        </mxCell>
      </root>
    </mxGraphModel>
  </diagram>
</mxfile>
